# xmcd
# 
# Track frame offsets:
#     150
#     22526
#     39323
#     60807
# 
# Disc length: 1025
# 
# Revision: 0
# Processed by: cddbd v1.5.2PL0 Copyright (c) Steve Scherf et al.
# Submitted via: fre:ac v1.0.17
# 
DISCID=1903ff04
DTITLE=David B. Dollar - Benefit of the Doubt
DYEAR=2012
DGENRE=Christian Rock
TTITLE0=100 Miles
TTITLE1=Landmark
TTITLE2=City Of Medicine
TTITLE3=The Choices That You Make
EXTD=
EXTT0=
EXTT1=
EXTT2=
EXTT3=
PLAYORDER=
